name E:\3-PhD\Data\MocapData\ElaboratedData\009\pre\dynamicElaborations\RunN3\RunN3.mot
datacolumns 37
datarows 11
range 2.3525 2.3575
endheader

time	    ground_force1_vx	    ground_force1_vy	    ground_force1_vz	    ground_force1_px	    ground_force1_py	    ground_force1_pz	    ground_force2_vx	    ground_force2_vy	    ground_force2_vz	    ground_force2_px	    ground_force2_py	    ground_force2_pz	    ground_force3_vx	    ground_force3_vy	    ground_force3_vz	    ground_force3_px	    ground_force3_py	    ground_force3_pz	    ground_force4_vx	    ground_force4_vy	    ground_force4_vz	    ground_force4_px	    ground_force4_py	    ground_force4_pz	    ground_torque1_x	    ground_torque1_y	    ground_torque1_z	    ground_torque2_x	    ground_torque2_y	    ground_torque2_z	    ground_torque3_x	    ground_torque3_y	    ground_torque3_z	    ground_torque4_x	    ground_torque4_y	    ground_torque4_z	
2.3525	          0.00000000	          0.00000000	          0.00000000	          0.00000000	          0.00000000	          0.00000000	          0.00000000	          0.00000000	          0.00000000	          0.00000000	          0.00000000	          0.00000000	        -71.20280438	       1541.47863463	        899.41212838	         -0.52773444	          0.00000000	          0.02734695	         34.55774730	        197.64783632	        132.23333695	         -0.54067065	          0.00000000	         -0.01503748	          0.00000000	          0.00000000	          0.00000000	          0.00000000	          0.00000000	          0.00000000	          0.00000000	          1.54815445	         -0.00000000	         -0.00000000	         -0.29050943	          0.00000000	
2.353	          0.00000000	          0.00000000	          0.00000000	          0.00000000	          0.00000000	          0.00000000	          0.00000000	          0.00000000	          0.00000000	          0.00000000	          0.00000000	          0.00000000	        -65.40976945	       1534.88204458	        895.99613584	         -0.52759403	          0.00000000	          0.02731186	         35.04965790	        196.47344597	        132.14136683	         -0.54060601	          0.00000000	         -0.01506119	          0.00000000	          0.00000000	          0.00000000	          0.00000000	          0.00000000	          0.00000000	          0.00000000	          1.41813884	         -0.00000000	         -0.00000000	         -0.29307709	          0.00000000	
2.3535	          0.00000000	          0.00000000	          0.00000000	          0.00000000	          0.00000000	          0.00000000	          0.00000000	          0.00000000	          0.00000000	          0.00000000	          0.00000000	          0.00000000	        -59.63938342	       1528.22688122	        892.51560158	         -0.52745743	          0.00000000	          0.02727878	         35.52510941	        195.23884702	        132.00638507	         -0.54054115	          0.00000000	         -0.01508503	          0.00000000	          0.00000000	          0.00000000	          0.00000000	          0.00000000	          0.00000000	          0.00000000	          1.28935983	         -0.00000000	         -0.00000000	         -0.29552687	          0.00000000	
2.354	          0.00000000	          0.00000000	          0.00000000	          0.00000000	          0.00000000	          0.00000000	          0.00000000	          0.00000000	          0.00000000	          0.00000000	          0.00000000	          0.00000000	        -53.89328034	       1521.51127685	        888.97054831	         -0.52732450	          0.00000000	          0.02724769	         35.98368298	        193.94456682	        131.82810887	         -0.54047607	          0.00000000	         -0.01510902	          0.00000000	          0.00000000	          0.00000000	          0.00000000	          0.00000000	          0.00000000	          0.00000000	          1.16186063	         -0.00000000	         -0.00000000	         -0.29785487	          0.00000000	
2.3545	          0.00000000	          0.00000000	          0.00000000	          0.00000000	          0.00000000	          0.00000000	          0.00000000	          0.00000000	          0.00000000	          0.00000000	          0.00000000	          0.00000000	        -48.17306817	       1514.73336809	        885.36100300	         -0.52719508	          0.00000000	          0.02721859	         36.42496525	        192.59119645	        131.60629641	         -0.54041080	          0.00000000	         -0.01513315	          0.00000000	          0.00000000	          0.00000000	          0.00000000	          0.00000000	          0.00000000	          0.00000000	          1.03568420	         -0.00000000	         -0.00000000	         -0.30005706	          0.00000000	
2.355	          0.00000000	          0.00000000	          0.00000000	          0.00000000	          0.00000000	          0.00000000	          0.00000000	          0.00000000	          0.00000000	          0.00000000	          0.00000000	          0.00000000	        -42.48032968	       1507.89129632	        881.68699947	         -0.52706903	          0.00000000	          0.02719148	         36.84854788	        191.17939084	        131.34074586	         -0.54034534	          0.00000000	         -0.01515743	          0.00000000	          0.00000000	          0.00000000	          0.00000000	          0.00000000	          0.00000000	          0.00000000	          0.91087350	         -0.00000000	         -0.00000000	         -0.30212931	          0.00000000	
2.3555	          0.00000000	          0.00000000	          0.00000000	          0.00000000	          0.00000000	          0.00000000	          0.00000000	          0.00000000	          0.00000000	          0.00000000	          0.00000000	          0.00000000	        -36.81662325	       1500.98321076	        877.94858181	         -0.52694620	          0.00000000	          0.02716634	         37.25402998	        189.70986821	        131.03129769	         -0.54027973	          0.00000000	         -0.01518186	          0.00000000	          0.00000000	          0.00000000	          0.00000000	          0.00000000	          0.00000000	          0.00000000	          0.78746968	         -0.00000000	         -0.00000000	         -0.30406821	          0.00000000	
2.356	          0.00000000	          0.00000000	          0.00000000	          0.00000000	          0.00000000	          0.00000000	          0.00000000	          0.00000000	          0.00000000	          0.00000000	          0.00000000	          0.00000000	        -31.18348411	       1494.00727283	        874.14580426	         -0.52682645	          0.00000000	          0.02714316	         37.64102167	        188.18341017	        130.67783824	         -0.54021397	          0.00000000	         -0.01520644	          0.00000000	          0.00000000	          0.00000000	          0.00000000	          0.00000000	          0.00000000	          0.00000000	          0.66551104	         -0.00000000	         -0.00000000	         -0.30587136	          0.00000000	
2.3565	          0.00000000	          0.00000000	          0.00000000	          0.00000000	          0.00000000	          0.00000000	          0.00000000	          0.00000000	          0.00000000	          0.00000000	          0.00000000	          0.00000000	        -25.58242548	       1486.96165904	        870.27872717	         -0.52670964	          0.00000000	          0.02712194	         38.00914498	        186.60086191	        130.28030055	         -0.54014808	          0.00000000	         -0.01523116	          0.00000000	          0.00000000	          0.00000000	          0.00000000	          0.00000000	          0.00000000	          0.00000000	          0.54503400	         -0.00000000	         -0.00000000	         -0.30753651	          0.00000000	
2.357	          0.00000000	          0.00000000	          0.00000000	          0.00000000	          0.00000000	          0.00000000	          0.00000000	          0.00000000	          0.00000000	          0.00000000	          0.00000000	          0.00000000	        -20.01493934	       1479.84456304	        866.34741310	         -0.52659563	          0.00000000	          0.02710266	         38.35803197	        184.96313105	        129.83866241	         -0.54008208	          0.00000000	         -0.01525603	          0.00000000	          0.00000000	          0.00000000	          0.00000000	          0.00000000	          0.00000000	          0.00000000	          0.42607479	         -0.00000000	         -0.00000000	         -0.30906076	          0.00000000	
2.3575	          0.00000000	          0.00000000	          0.00000000	          0.00000000	          0.00000000	          0.00000000	          0.00000000	          0.00000000	          0.00000000	          0.00000000	          0.00000000	          0.00000000	        -14.48249737	       1472.65419847	        862.35192610	         -0.52648426	          0.00000000	          0.02708531	         38.68732363	        183.27118567	        129.35294493	         -0.54001599	          0.00000000	         -0.01528105	          0.00000000	          0.00000000	          0.00000000	          0.00000000	          0.00000000	          0.00000000	          0.00000000	          0.30866909	         -0.00000000	         -0.00000000	         -0.31044098	          0.00000000	
